<svg xmlns="http://www.w3.org/2000/svg" viewBox="0 0 631.94 460.26"><defs><style>.cls-1{fill:#fefefe;}</style></defs><g id="Layer_2" data-name="Layer 2"><g id="Layer_2-2" data-name="Layer 2"><path class="cls-1" d="M316,349.93s-59.86-102.24-71.29-125.67-29.14-31.93-44.57-13.14-42.29,64-51.43,86.85-19.43,51.5,3.43,51.5,52.57-13.78,58.29-16.64,34.42-19.14-28.15,44.71S66.11,460.26,31.82,460.26-9.75,422.12,13.4,349.47s94.71-204.64,129-249.21,60-60,87.42-60,51.72,6.86,86.15,70.07c0,0,59.85,102.24,71.28,125.67s29.14,31.93,44.57,13.14,42.29-64,51.43-86.85,19.43-51.5-3.43-51.5-52.57,13.78-58.28,16.64-34.43,19.14,28.14-44.72S565.82,0,600.11,0s41.57,38.14,18.43,110.79S523.82,315.43,489.54,360s-60,60-87.43,60S350.4,413.4,316,349.93Z"/></g></g></svg>